# xmcd CD database file
#
# Track frame offsets:
#	182
#	10055
#	84927
#	103005
#	121350
#	137537
#	157407
#	173707
#	180800
#	194590
#
# Disc length: 2746 seconds
#
# Revision: 0
# Processed by: cddbd v1.5.2PL0 Copyright (c) Steve Scherf et al.
# Submitted via: CDex 1.51
#
DISCID=780ab80a
DTITLE=ASPM and Pratele - Havran
DYEAR=1991
DGENRE=Blues
TTITLE0=Hodina mezi psem a vlkem
TTITLE1=Havran
TTITLE2=Jakoby
TTITLE3=Postuj i ted jako kral
TTITLE4=Blues o klamne nadeji
TTITLE5=Kapitan Slunce
TTITLE6=Jak se citim
TTITLE7=Jeste ze u toho nemusim bejt
TTITLE8=Tesne predtim
TTITLE9=Lucky boy
EXTD=YEAR: 1991
EXTT0=
EXTT1=
EXTT2=
EXTT3=
EXTT4=
EXTT5=
EXTT6=
EXTT7=
EXTT8=
EXTT9=
PLAYORDER=
